<svg xmlns="http://www.w3.org/2000/svg" width="433.145" height="670.842" viewBox="0 0 433.145 670.842">
  <defs>
    <style>
      .cls-1 {
        fill: #f4ceae;
      }

      .cls-2 {
        fill: #ffb594;
      }

      .cls-3 {
        fill: #cfd2e8;
      }

      .cls-11, .cls-4 {
        fill: #fff;
      }

      .cls-5 {
        fill: #1b3c47;
      }

      .cls-6 {
        fill: #c0e5f2;
      }

      .cls-7 {
        fill: #cc6f65;
      }

      .cls-12, .cls-7 {
        opacity: 0.5;
      }

      .cls-8 {
        fill: #fcdfca;
      }

      .cls-9 {
        fill: #274b5b;
      }

      .cls-10 {
        fill: #080808;
      }

      .cls-11, .cls-13 {
        opacity: 0.3;
      }

      .cls-12, .cls-14 {
        fill: #fceade;
      }
    </style>
  </defs>
  <g id="Group_7" data-name="Group 7" transform="translate(-71.135 -158.658)">
    <rect id="Rectangle_49" data-name="Rectangle 49" class="cls-1" width="40" height="151.5" transform="translate(98.56 643)"/>
    <path id="Path_142" data-name="Path 142" class="cls-2" d="M138.56,643V794.5h-19.5a12.29,12.29,0,0,1,1.23-5.43c2.51-5.14,4.42-12.06,5.89-18.77,5.76-26.28,8.55-54.91,10.19-83.53.84-14.55,1.38-29.15,1.73-43.77Z"/>
    <path id="Path_149" data-name="Path 149" class="cls-3" d="M348.3,712.74s-7.72-42,30-119.31c0,0,21.16-7.36,16.56-30.36l8.94-12.39,20.05-27.8,21-29.17c12.14-16.82,24.16-33.38,32.92-52.29a213.816,213.816,0,0,0,8.31-20.7,13.15,13.15,0,0,0-.4-9.52l-6.08-13.88L335.06,607.23,321.26,690l1,7.32S344.62,711.82,348.3,712.74Z"/>
    <path id="Path_158" data-name="Path 158" class="cls-4" d="M162.56,524c-14.2,1-29.15,3-42.44,8.28C78.24,548.94,88.88,600.19,83.56,638l54-6,3.77,184.53A11.71,11.71,0,0,0,153,828H320.85a11.71,11.71,0,0,0,11.71-11.71V786c0-144,40-206.64,40-206.64V523.5Z"/>
    <path id="Path_159" data-name="Path 159" class="cls-3" d="M373.58,521.5v55.86s-40,62.64-40,206.64v30.29A11.71,11.71,0,0,1,321.85,826H154a11.69,11.69,0,0,1-11-7.7,11.7,11.7,0,0,0,4,.7H314.85a11.71,11.71,0,0,0,11.71-11.71V777c0-144,40-206.64,40-206.64V521.52Z"/>
    <path id="Path_161" data-name="Path 161" class="cls-5" d="M318.67,829.5H153.19a15.48,15.48,0,0,1-15.39-15.08l-3.68-180.63-54.48,6.05.44-3.19c1.23-8.73,1.59-18,2-27.92,1.26-32.65,2.56-66.41,36.15-79.77,11.47-4.57,25.2-7.25,43.19-8.45h.11c.95,0,23.42-1,29-26.46a2.5,2.5,0,1,1,4.89,1.07c-6.24,28.54-32,30.3-33.66,30.39-17.45,1.16-30.69,3.74-41.66,8.1-30.57,12.16-31.8,44.27-33,75.33-.33,8.44-.66,17.13-1.61,25.23L139,628.21l3.8,186.11a10.46,10.46,0,0,0,10.39,10.18H318.67a10.4,10.4,0,0,0,10.39-10.39V785c0-74.69,10.94-127.16,20.12-158,10-33.61,19.88-49.3,20.3-50a2.5,2.5,0,0,1,4.21,2.69c-.39.62-39.63,63.87-39.63,205.29v29.11a15.4,15.4,0,0,1-15.39,15.41Z"/>
    <path id="Path_162" data-name="Path 162" class="cls-5" d="M328.4,528.22c-25.77,0-46.43-22.25-46.69-22.54a2.5,2.5,0,1,1,3.7-3.37c.29.33,30.12,32.38,61,16.47a2.5,2.5,0,0,1,2.29,4.44,43.87,43.87,0,0,1-20.3,5Z"/>
    <path id="Path_163" data-name="Path 163" d="M308.3,216.93a119.17,119.17,0,0,0-65.77-26.83c-1.29-.12-2.6-.23-3.91-.31-1.65-.1-3.32-.17-5-.21H227.5a26.179,26.179,0,0,0-2.71.09h-.83c-.91,0-1.82.1-2.73.16h-.41c-.9.07-1.8.14-2.7.23h-.26c-.66.06-1.32.13-2,.21-1.24.14-2.47.29-3.69.46l-.85.13c-.68.1-1.36.2-2,.32l-1.27.21-2.06.38-1.07.21c-.61.12-1.21.24-1.81.38l-1.56.35c-.52.11-1,.23-1.55.37l-1.26.31c-.23.05-.47.11-.7.18-41.79,10.91-73.58,42.48-87.1,81.85-.09.25-.18.5-.25.75a130.931,130.931,0,0,0-6,27.25,133.621,133.621,0,0,0,2.56,44.79c.13.61.28,1.21.43,1.82.19.82.4,1.65.62,2.47q.39,1.5.81,3l4.22,19.5,1.18,5.38,3.55,16.17,2.63-.08,2-.07,9-.28,85.87-2.68h.47l24.32-.76,99.64-3.11,6.24-27.68,1.18-5.23,1.39-6.17c.16-.72.32-1.45.47-2.17q.5-2.34.9-4.68c5-28.5,6.34-58.42-4.29-82.51C340,243.12,323.21,229.27,308.3,216.93ZM208.87,364.42l-.22.09a41.063,41.063,0,0,0,.48-6.35,38.869,38.869,0,0,0-1.22-9.86,30.319,30.319,0,0,0-1.39-4.13,10.56,10.56,0,0,1,2.35,20.25Z"/>
    <path id="Path_164" data-name="Path 164" class="cls-5" d="M127,417.8l-15.79-45.26c-.17-.47-.35-1-.52-1.47l-.21-.58a174.83,174.83,0,0,1-5-17.3c-.19-.81-.38-1.62-.55-2.45-.14-.59-.28-1.22-.4-1.86a148.32,148.32,0,0,1-2.07-49.55v-.19a133.758,133.758,0,0,1,5.34-23.75c.09-.3.19-.6.3-.89a127.27,127.27,0,0,1,89.11-83.73q.41-.12.81-.21l1.27-.31c.48-.13,1.05-.26,1.62-.38l1.56-.36c.57-.13,1.2-.26,1.85-.38l1.08-.22,2.12-.39.43-.07.92-.15c.6-.11,1.31-.21,2-.32h.35l.52-.08c1.24-.17,2.5-.33,3.76-.47.66-.08,1.35-.16,2-.22h.33l2.67-.22h.42c1-.07,1.89-.13,2.82-.17h.86c.89,0,1.81-.07,2.75-.09h6.24c1.72,0,3.44.11,5.12.22,38.42,2.42,72.92,23,94.68,56.47h0c1.73,2.65,4.76,4.65,8,6.76,4.34,2.85,8.83,5.8,10.94,10.88,9.56,23,7,53.53,2.82,83.14-.19,1.42-.43,3-.74,4.77-.43,2.44-.9,4.83-1.42,7.12L352,392.23l-3.33.39ZM108.45,299.73v.2a142.43,142.43,0,0,0,2,47.76c.12.61.24,1.18.37,1.76.18.82.35,1.59.54,2.37a167.229,167.229,0,0,0,4.86,16.69l.2.57.51,1.45L131.1,411.3l215-24.43.93-31.7.07-.29c.51-2.27,1-4.66,1.41-7.09.3-1.71.53-3.21.72-4.57,4.06-28.79,6.58-58.39-2.42-80-1.4-3.38-4.94-5.7-8.69-8.17-3.59-2.36-7.31-4.79-9.71-8.49h0c-21-32.33-53-51.42-90-53.76-1.6-.09-3.25-.16-4.88-.2h-6q-1.32,0-2.64.09h-.74l-2.75.16h-.38c-.88.07-1.75.14-2.63.23h-.29c-.63.06-1.25.12-1.87.2-1.25.14-2.45.29-3.65.45l-.84.13-1.92.3-.86.14-.45.08c-.65.11-1.32.24-2,.37l-1.05.2c-.58.12-1.15.23-1.71.36l-1.57.35c-.52.11-1,.22-1.45.35l-1.28.31h-.11a3.592,3.592,0,0,0-.47.12h-.13a121.34,121.34,0,0,0-85,79.89c-.09.26-.16.44-.21.62v.11a128.63,128.63,0,0,0-5.08,22.67Zm240.61,89.82ZM204.78,369.46l.91-5.42a38.532,38.532,0,0,0,.44-5.88,36.131,36.131,0,0,0-1.12-9.1,27.48,27.48,0,0,0-1.25-3.72l-2.09-4.92,5.29.78a13.56,13.56,0,0,1,3.1,26l-.28.12Zm6.75-18.59a43.278,43.278,0,0,1,.59,6.2,7.67,7.67,0,0,0,.4-2.45,7.53,7.53,0,0,0-.99-3.75Z"/>
    <path id="Path_165" data-name="Path 165" class="cls-6" d="M178.66,517.8l.48-.56q-.22.57-.42,1.14C178.67,518,178.66,517.8,178.66,517.8Z"/>
    <path id="Path_166" data-name="Path 166" class="cls-5" d="M126.37,332.47a2.5,2.5,0,0,1-2.5-2.5V300a2.5,2.5,0,1,1,5,0v30a2.5,2.5,0,0,1-2.5,2.47Z"/>
    <path id="Path_167" data-name="Path 167" class="cls-5" d="M126.37,288.8a2.5,2.5,0,0,1-2.5-2.5V275.09a2.5,2.5,0,1,1,5,0V286.3A2.5,2.5,0,0,1,126.37,288.8Z"/>
    <path id="Path_168" data-name="Path 168" class="cls-4" d="M245.91,249.51a91.75,91.75,0,0,1,37,17.2c3.06,2.36,6.05-2.85,3-5.18a95.84,95.84,0,0,0-38.46-17.81c-3.77-.8-5.37,5-1.6,5.79Z"/>
    <path id="Path_169" data-name="Path 169" class="cls-1" d="M378.41,369.3v7.35a21,21,0,0,1-21,21H101a5.844,5.844,0,0,1-.59,0,20.76,20.76,0,0,1-11.12-3.55h0A21,21,0,0,1,80,376.65V369.3a21,21,0,0,1,21-21H207.91a38.87,38.87,0,0,1,1.22,9.86,41.058,41.058,0,0,1-.48,6.35l.22-.09a10.55,10.55,0,0,0,4.55-16.12h144A21,21,0,0,1,378.41,369.3Z"/>
    <path id="Path_170" data-name="Path 170" class="cls-7" d="M376.06,374.36a24.63,24.63,0,0,1-7.22,17.45,25.434,25.434,0,0,1-3,2.56,37.91,37.91,0,0,0-30-44.68h15.58a24.67,24.67,0,0,1,24.64,24.67Z"/>
    <path id="Path_171" data-name="Path 171" class="cls-8" d="M102.35,357.19a30.09,30.09,0,0,0-.47,42.11,24.67,24.67,0,0,1,2.79-49.18h8.8a30.19,30.19,0,0,0-11.12,7.07Z"/>
    <path id="Path_172" data-name="Path 172" class="cls-5" d="M353.74,400.65H104.67a28.157,28.157,0,0,1-5.19-.49A27.83,27.83,0,0,1,77,374v-1a27.69,27.69,0,0,1,27.68-27.68H353.74a27.675,27.675,0,0,1,0,55.35ZM104.67,351.3A21.68,21.68,0,0,0,83,373v.81a21.78,21.78,0,0,0,17.6,20.47,21.243,21.243,0,0,0,4.06.39H353.74a21.677,21.677,0,1,0,0-43.355l-135.63,0a13.56,13.56,0,0,1-8.05,15.87l-.28.12-5,2.17.91-5.42a38.532,38.532,0,0,0,.44-5.88,37.321,37.321,0,0,0-.62-6.86Zm106.86-.43a43.278,43.278,0,0,1,.59,6.2,7.67,7.67,0,0,0,.4-2.45,7.53,7.53,0,0,0-.99-3.75Z"/>
    <path id="Path_173" data-name="Path 173" class="cls-1" d="M315.07,245.13A117.12,117.12,0,0,0,232,210.72h-.58A117.42,117.42,0,0,0,114.52,328.2v82.24a120.67,120.67,0,0,0,26.78,75.62l.05.06c21.55,26.76,54.16,44.15,90.65,44.15,64.89,0,117.49-56.12,117.49-121V328.21A117.14,117.14,0,0,0,315.07,245.13ZM215.52,353.91a10.55,10.55,0,0,1-6.65,9.8l-.22.09a41.062,41.062,0,0,0,.48-6.35,38.871,38.871,0,0,0-1.22-9.86,30.321,30.321,0,0,0-1.39-4.13,10.57,10.57,0,0,1,9,10.45Z"/>
    <path id="Path_174" data-name="Path 174" class="cls-7" d="M349.2,329.73V410.8c0,64.89-52.59,121-117.48,121q-3.84,0-7.64-.25c61.33-3.93,109.85-58.43,109.85-120.76V329.73A117.5,117.5,0,0,0,224.091,212.491q3.774-.241,7.629-.241A117.48,117.48,0,0,1,349.2,329.73Z"/>
    <path id="Path_176" data-name="Path 176" class="cls-5" d="M135.1,485.83a3,3,0,0,1-2.44-1.26c-2-2.76-3.84-5.64-5.57-8.55a3,3,0,1,1,5.16-3.06c1.64,2.77,3.42,5.5,5.29,8.12a3.005,3.005,0,0,1-2.44,4.75Z"/>
    <path id="Path_177" data-name="Path 177" class="cls-5" d="M121.91,461.84a3,3,0,0,1-2.78-1.87,120.461,120.461,0,0,1-8.8-45.29V328.92a120.541,120.541,0,0,1,27.982-77.2A119.079,119.079,0,0,1,152.92,237l.32-.27a120.53,120.53,0,0,1,77.58-28.3h.67A120.47,120.47,0,0,1,351.3,328.92v85.76a120.44,120.44,0,0,1-3.08,27.18,3,3,0,0,1-5.84-1.36,114.659,114.659,0,0,0,2.92-25.82V328.92A114.465,114.465,0,0,0,231.379,214.44h-.559a114.46,114.46,0,0,0-73.79,27l-.17.14a112.922,112.922,0,0,0-13.91,14,114.56,114.56,0,0,0-26.62,73.38v85.76a114.94,114.94,0,0,0,8.36,43,3,3,0,0,1-2.78,4.13Z"/>
    <path id="Path_178" data-name="Path 178" class="cls-5" d="M100.84,383.41A2,2,0,0,1,99,380.68a16.46,16.46,0,0,0-2.92-16.45,2,2,0,1,1,3-2.64,20.57,20.57,0,0,1,3.65,20.54A2,2,0,0,1,100.84,383.41Z"/>
    <path id="Path_179" data-name="Path 179" class="cls-5" d="M89.86,376.12a2,2,0,0,1-1.6-3.2,12.94,12.94,0,0,1,12-5,2.02,2.02,0,0,1-.56,4,9,9,0,0,0-8.27,3.44A2,2,0,0,1,89.86,376.12Z"/>
    <path id="Path_180" data-name="Path 180" class="cls-5" d="M359.25,383.64a2,2,0,0,1-1.87-1.28A20.55,20.55,0,0,1,361,361.82a2,2,0,1,1,3,2.64,16.46,16.46,0,0,0-2.93,16.45,1.957,1.957,0,0,1-1.82,2.73Z"/>
    <path id="Path_181" data-name="Path 181" class="cls-5" d="M370.23,376.35a2,2,0,0,1-1.61-.8,9,9,0,0,0-8.27-3.45,2.02,2.02,0,1,1-.56-4,13,13,0,0,1,12,5,2,2,0,0,1-1.6,3.2Z"/>
    <path id="Path_182" data-name="Path 182" class="cls-6" d="M170.31,506.22l.56-.65c-.17.44-.34.88-.49,1.33C170.32,506.46,170.31,506.22,170.31,506.22Z"/>
    <path id="Path_183" data-name="Path 183" class="cls-1" d="M242.46,391.66A12.61,12.61,0,0,1,230,404.4c-6.9,0-12.48-8.06-12.48-15.09Z"/>
    <path id="Path_184" data-name="Path 184" class="cls-2" d="M321.29,277a117.65,117.65,0,0,0-97.18-64.12c-2.57.17-5.11.42-7.64.74a117,117,0,0,1,59.85,26.19l3.87,3.37c1.39,1.26,2.76,2.54,4.08,3.87a117.709,117.709,0,0,1,20.36,27.3c-26.81-7.53-43.56-28.17-43.56-28.17-21,18,1,27,1,27l-21,8c-46,10-48-40-48-40l-31.84,21.24-31.16,13.76c33,5,58-24,58-24,0,10-1.07,25.17,26,36,30,12,60-15,60-15-16-5-13-15-13-16,13.08,16.16,36.81,22.24,47.05,24.2a117,117,0,0,1,10.57,48.74v81.07c0,59.72-44.54,112.54-102.22,120,2.53.33,5.07.58,7.64.74C285.44,528,334,472.31,334,410V330.09c.11-17.94-3.89-38.94-12.4-54.53"/>
    <path id="Path_185" data-name="Path 185" class="cls-1" d="M217.06,368.5l13-19-11-13s-16-4-17-2-7,23-7,23l9,19Z"/>
    <rect id="Rectangle_52" data-name="Rectangle 52" class="cls-4" width="49" height="57.33" rx="24.5" transform="translate(253.44 340.17)"/>
    <circle id="Ellipse_49" data-name="Ellipse 49" class="cls-9" cx="11.98" cy="11.98" r="11.98" transform="translate(265.97 358.03)"/>
    <circle id="Ellipse_50" data-name="Ellipse 50" class="cls-4" cx="8.56" cy="8.56" r="8.56" transform="translate(265.96 347.76)"/>
    <circle id="Ellipse_51" data-name="Ellipse 51" class="cls-4" cx="2.96" cy="2.96" r="2.96" transform="translate(277.64 373.56)"/>
    <rect id="Rectangle_53" data-name="Rectangle 53" class="cls-4" width="49" height="57.33" rx="24.5" transform="translate(157.44 340.17)"/>
    <path id="Path_186" data-name="Path 186" class="cls-5" d="M181.94,401.67a27,27,0,0,1-27-27,2.5,2.5,0,0,1,5,0,22,22,0,0,0,44,0,2.5,2.5,0,1,1,5,0,27,27,0,0,1-27,27Z"/>
    <path id="Path_187" data-name="Path 187" class="cls-5" d="M277.94,401.67a27,27,0,0,1-27-27,2.5,2.5,0,0,1,5,0,22,22,0,0,0,44,0,2.5,2.5,0,1,1,5,0,27,27,0,0,1-27,27Z"/>
    <circle id="Ellipse_52" data-name="Ellipse 52" class="cls-9" cx="11.98" cy="11.98" r="11.98" transform="translate(168.97 358.03)"/>
    <circle id="Ellipse_53" data-name="Ellipse 53" class="cls-4" cx="8.56" cy="8.56" r="8.56" transform="translate(168.96 347.76)"/>
    <circle id="Ellipse_54" data-name="Ellipse 54" class="cls-4" cx="2.96" cy="2.96" r="2.96" transform="translate(180.64 373.56)"/>
    <path id="Path_188" data-name="Path 188" class="cls-10" d="M123.06,276.5l45.5-16.9a173.21,173.21,0,0,0,40.5-35.1l-13.7,12c7.23-4.14-9.2,7-2.3,3-8,26,27,62,68.5,34.5,0,0-14.78-12.08-.36-26.51,0,0,33.36,43.51,100.36,22.51,0,0-8-52-55-64l33-12s-59-58-120-19v.1a14.25,14.25,0,0,0-7-3.85s0,15.39-7.7,20.53c0,0-43.62-34.22-97.51,3.42,0,0,24.81,2.56,24.81,14.54,0,0-41.06,14.54-41.06,66.72l21-2"/>
    <path id="Path_191" data-name="Path 191" class="cls-5" d="M112.06,279.5h0l-25-.05v-3c0-28,11.65-45.39,21.42-55.06a68.62,68.62,0,0,1,19.29-13.52c-2.38-6.27-16.52-9.16-21.77-9.7l-8-.83,6.6-4.61c28.73-20.06,54.64-19.94,71.32-16.3A82.339,82.339,0,0,1,203.65,188c3.95-4.33,4.87-13.29,4.87-16.73v-3.71l3.63.77c13.84,3,16.76,21.38,16.88,22.17a3,3,0,1,1-5.94.89c0-.24-1.88-11.56-8.83-15.83-.58,5.48-2.5,14.55-8.77,18.73l-1.81,1.21L202,194.14a74.34,74.34,0,0,0-27.6-11.89c-20.29-4.36-40.46-.55-60,11.3,8.2,1.94,19.79,6.41,19.79,16.19v2.12l-2,.71a59.89,59.89,0,0,0-19.61,13.29c-12.28,12.25-18.8,28.25-19.4,47.6h19a3,3,0,0,1,0,6Z"/>
    <path id="Path_192" data-name="Path 192" d="M201.06,234.5s-10,57,55,37l3.2,4s-13.41,12.79-29.2,10C207.06,281.5,179.06,257.5,201.06,234.5Z"/>
    <path id="Path_202" data-name="Path 202" class="cls-5" d="M306.56,327a3,3,0,0,1-1.57-.44c-28.94-17.74-55.67-.78-56.79-.05a3,3,0,0,1-3.28-5c1.25-.82,31-19.82,63.21-.05a3,3,0,0,1-1.57,5.56Z"/>
    <path id="Path_203" data-name="Path 203" class="cls-5" d="M213.56,327a3,3,0,0,1-1.57-.44c-28.94-17.74-55.67-.78-56.79-.05a3,3,0,0,1-3.28-5c1.25-.82,31-19.82,63.21-.05a3,3,0,0,1-1.57,5.56Z"/>
    <path id="Path_248" data-name="Path 248" class="cls-11" d="M9.72,0H66.49a9.72,9.72,0,0,1,9.72,9.72V61.28A9.72,9.72,0,0,1,66.49,71H9.72A9.72,9.72,0,0,1,0,61.28V9.72A9.72,9.72,0,0,1,9.72,0Z" transform="translate(246.06 335)"/>
    <rect id="Rectangle_55" data-name="Rectangle 55" class="cls-11" width="76.21" height="71" rx="9.72" transform="translate(138.06 336)"/>
    <path id="Path_210" data-name="Path 210" class="cls-12" d="M230.06,360.43V419.5s-15.89-7.51-15.89-21.75.89-36.25.89-36.25l12.17-3.24a2.24,2.24,0,0,1,2.83,2.17Z"/>
    <path id="Path_211" data-name="Path 211" class="cls-5" d="M245.06,365.5a3,3,0,0,1-.93-.15c-16.26-5.32-27.3-.2-27.41-.14a3,3,0,1,1-2.59-5.42c.54-.25,13.35-6.21,31.86-.14a3,3,0,0,1-.93,5.85Z"/>
    <path id="Path_212" data-name="Path 212" class="cls-5" d="M230,421.5a13.84,13.84,0,0,1-13.72-13.94,3,3,0,0,1,6,0,7.72,7.72,0,1,0,15.43,0,3,3,0,1,1,6,0A13.84,13.84,0,0,1,230,421.5Z"/>
    <g id="Group_6" data-name="Group 6" class="cls-13">
      <path id="Path_213" data-name="Path 213" class="cls-4" d="M178.23,335.5h0Z"/>
    </g>
    <path id="Path_215" data-name="Path 215" class="cls-5" d="M204.56,408.5H148.28a12.23,12.23,0,0,1-12.22-12.22V344.72a12.23,12.23,0,0,1,12.22-12.22h56.28a12.24,12.24,0,0,1,12.23,12.22v51.56a12.24,12.24,0,0,1-12.23,12.22Zm-56.28-71a7.23,7.23,0,0,0-7.22,7.22v51.56a7.23,7.23,0,0,0,7.22,7.22h56.28a7.24,7.24,0,0,0,7.23-7.22V344.72a7.24,7.24,0,0,0-7.23-7.22Z"/>
    <path id="Path_216" data-name="Path 216" class="cls-5" d="M229.82,286.76c-.73,0-1.45,0-2.17-.05a38.49,38.49,0,0,1-24.26-10c-11.48-10.44-16.33-27.36-11-38.52a3,3,0,1,1,5.42,2.56c-3.62,7.65-1,21.87,9.66,31.52,7.11,6.47,22.65,14.88,48.31,1a20.85,20.85,0,0,1-4.84-11.84c-.28-5.62,2.14-11,7.18-16.08L260.5,243l2.08,2.72c.08.1,8.28,10.57,24.27,18.39,20.72,10.14,44.34,11.43,70.23,3.86-2.34-10.34-13.62-49.15-52.26-59l-9.42-2.41,37.42-13.6a134.46,134.46,0,0,0-32.74-20.34c-28.66-12.28-55.55-10.61-79.9,5a3,3,0,0,1-3.24-5.06c25.82-16.5,55.45-18.35,85.68-5.35a135.1,135.1,0,0,1,38,24.74l3.39,3.33L314.8,205.83c16.16,6.34,29.37,18.38,38.52,35.24a96.84,96.84,0,0,1,10.21,28.47l.39,2.55-2.46.77c-35.56,11.15-61.79,4.22-77.53-3.55A83.52,83.52,0,0,1,260.18,252a13.71,13.71,0,0,0-3.28,9.12c.3,6.07,5.51,10.48,5.56,10.53l3.31,2.71-3.67,2.19C250.75,283.34,239.9,286.76,229.82,286.76Z"/>
    <path id="Path_217" data-name="Path 217" class="cls-5" d="M121.34,278.46a3,3,0,0,1-.1-6c43.33-1.56,85.45-49.24,85.87-49.72a3,3,0,1,1,4.52,3.94,203.729,203.729,0,0,1-27.51,25.18c-22.22,16.95-43.3,25.9-62.66,26.6Z"/>
    <path id="Path_225" data-name="Path 225" class="cls-5" d="M312.55,408.5H255.78a12.23,12.23,0,0,1-12.22-12.22V344.72a12.23,12.23,0,0,1,12.22-12.22h56.77a12.23,12.23,0,0,1,12.22,12.22v51.56A12.23,12.23,0,0,1,312.55,408.5Zm-56.77-71a7.23,7.23,0,0,0-7.22,7.22v51.56a7.23,7.23,0,0,0,7.22,7.22h56.77a7.23,7.23,0,0,0,7.22-7.22V344.72a7.23,7.23,0,0,0-7.22-7.22Z"/>
    <rect id="Rectangle_56" data-name="Rectangle 56" class="cls-4" width="76.3" height="21.35" rx="10.67" transform="translate(73.61 621.538) rotate(-0.96)"/>
    <path id="Path_226" data-name="Path 226" class="cls-3" d="M150,631v.18a10.68,10.68,0,0,1-10.49,10.67l-55,.91a10.67,10.67,0,0,1-10.85-10.49v5.19l49.55-1c13,0,16.75-5,16.12-16A10.68,10.68,0,0,1,150,631Z"/>
    <path id="Path_227" data-name="Path 227" class="cls-5" d="M242.33,459.5H205.06a3,3,0,1,1,0-6h37.27a27.54,27.54,0,0,0,19.61-8.12,3,3,0,0,1,4.24,4.24,33.51,33.51,0,0,1-23.85,9.88Z"/>
    <path id="Path_231" data-name="Path 231" class="cls-5" d="M98.94,797a2.49,2.49,0,0,1-2.5-2.5v-152a2.5,2.5,0,0,1,5,0v152a2.5,2.5,0,0,1-2.5,2.5Z"/>
    <path id="Path_232" data-name="Path 232" class="cls-5" d="M84.41,645.21a13.17,13.17,0,1,1-.21-26.34l55-.92a13.178,13.178,0,1,1,.44,26.353v0l-54.95.91Zm55.14-3.41Zm-.18-18.8h-.14l-54.95.92a8.18,8.18,0,0,0-5.54,14,8,8,0,0,0,5.82,2.29l54.95-.91h0a8.18,8.18,0,0,0-.14-16.35Z"/>
    <path id="Path_233" data-name="Path 233" class="cls-5" d="M144.92,363.65a3,3,0,0,1,.969,3.335Z"/>
    <path id="Path_235" data-name="Path 235" class="cls-1" d="M184.93,523.45v9.38a45.84,45.84,0,0,0,45.84,45.84h0a45.84,45.84,0,0,0,45.84-45.84v-9.38L232,532.65Z"/>
    <path id="Path_236" data-name="Path 236" class="cls-2" d="M277.69,519.77v9.38A45.87,45.87,0,0,1,222,573.94a45.87,45.87,0,0,0,36-44.79l3-2.49Z"/>
    <path id="Path_237" data-name="Path 237" class="cls-5" d="M230.82,535.17a119.6,119.6,0,0,1-86.13-36.23,3,3,0,0,1,4.29-4.2A114.51,114.51,0,0,0,337.66,455.9a3,3,0,0,1,5.6,2.16,120.53,120.53,0,0,1-112.44,77.11Z"/>
    <path id="Path_238" data-name="Path 238" class="cls-1" d="M383,561.19l91-128,26.5-42.5L487,380.19l-7,5,17.59-29.32a6.36,6.36,0,0,0-2.41-8.85h0a6.35,6.35,0,0,0-8.39,2.13l-28.4,44,.61,17.08c0,2.55-.8,6.42.86,8.63,2.07,2.74,6.86,2.86,9.48,1,2.85-2.06,4.12-6,4.53-9.35.83-6.81-2.06-13.78-8.75-16.37a13.86,13.86,0,0,0-17.17,6A65.382,65.382,0,0,0,443,411.19L429.19,428l-29.74,36.28-28.38,34.6L362.81,509c-.87,1.05-1.63,1.66-1.55,3,.09,1.5,1.38,3.53,1.93,4.92"/>
    <path id="Path_239" data-name="Path 239" class="cls-14" d="M501.41,350.8a5.29,5.29,0,0,0-.8-.06,6.35,6.35,0,0,0-5.34,2.91l-25.86,40-2.55,3.95v.08a13.61,13.61,0,0,0-5.24,1.68,13.75,13.75,0,0,0-5.2,5.18,65.382,65.382,0,0,0-4.95,11.14l-13.78,16.8L408,468.76l-28.38,34.61-8.26,10.08c-.87,1-1.63,1.66-1.55,3,.09,1.49,1.38,3.53,1.93,4.91l13.78,37.34.5,1.5-19.78-44.34c-.55-1.38-1.84-3.42-1.93-4.91-.08-1.33.68-1.94,1.55-3l8.26-10.08,28.38-34.61L432.19,427,446,410.19a65.379,65.379,0,0,1,4.95-11.14,13.7,13.7,0,0,1,10.44-6.86v-.08l28.41-44a6.351,6.351,0,0,1,11.64,2.65Z"/>
    <path id="Path_240" data-name="Path 240" class="cls-5" d="M365.19,518.36a2.51,2.51,0,0,1-2.33-1.59c-.15-.39-.37-.82-.6-1.28a12.41,12.41,0,0,1-1.49-4.4,5.61,5.61,0,0,1,1.74-4.29l.37-.44L442.74,409a67.8,67.8,0,0,1,5-11.15A16.34,16.34,0,0,1,468,390.73c7.22,2.8,11.37,10.43,10.33,19-.35,2.9-1.54,8.19-5.54,11.08-3.54,2.56-10,2.47-12.94-1.49-1.83-2.42-1.62-5.68-1.45-8.3,0-.67.08-1.3.08-1.82a2.5,2.5,0,0,1,2.49-2.51h0a2.5,2.5,0,0,1,2.5,2.49,17.917,17.917,0,0,1-.09,2.16c-.12,1.8-.26,4,.45,5,1.18,1.57,4.45,1.58,6,.45,2.55-1.85,3.3-5.95,3.51-7.63.58-4.83-.94-11.32-7.18-13.74a11.38,11.38,0,0,0-14.09,4.9A63,63,0,0,0,447.35,411l-.14.46-80.47,98.12c-.15.19-.3.36-.45.53a5.419,5.419,0,0,0-.54.69,10.32,10.32,0,0,0,1,2.54c.28.58.54,1.12.75,1.65a2.49,2.49,0,0,1-1.41,3.24A2.459,2.459,0,0,1,365.19,518.36Z"/>
    <path id="Path_241" data-name="Path 241" class="cls-5" d="M385,562.69a2.5,2.5,0,0,1-2-4l90.95-127.93,23.85-39.1-12.39-10.62a2.5,2.5,0,1,1,3.26-3.8l15.61,13.39-26.2,43-91,128A2.49,2.49,0,0,1,385,562.69Z"/>
    <rect id="Rectangle_57" data-name="Rectangle 57" class="cls-4" width="76.3" height="21.35" rx="10.67" transform="translate(362.118 503.393) rotate(68.29)"/>
    <path id="Path_242" data-name="Path 242" class="cls-5" d="M376.46,581.48a13.21,13.21,0,0,1-12.23-8.3L343.9,522.12a13.18,13.18,0,1,1,24.48-9.75l20.33,51.06a13.19,13.19,0,0,1-12.25,18.05Zm-20.32-72.41a8.17,8.17,0,0,0-7.59,11.2l20.32,51.06a8.18,8.18,0,1,0,15.19-6.05l-20.33-51.06a8.19,8.19,0,0,0-7.59-5.15Z"/>
    <path id="Path_243" data-name="Path 243" class="cls-5" d="M460.13,393.67a2.5,2.5,0,0,1-2.09-3.86l28.4-44a8.853,8.853,0,0,1,15.04,9.34l-17.6,29.32A2.5,2.5,0,1,1,479.6,382l17.59-29.31a3.86,3.86,0,0,0-6.55-4.08l-28.4,43.95a2.52,2.52,0,0,1-2.11,1.11Z"/>
    <path id="Path_247" data-name="Path 247" class="cls-5" d="M231.06,581.67a48.9,48.9,0,0,1-48.84-48.84v-9.38a3,3,0,0,1,6,0v9.38a42.848,42.848,0,1,0,85.7,0l-.005-9.38a3,3,0,0,1,6,0v9.38a48.9,48.9,0,0,1-48.85,48.84Z"/>
  </g>
</svg>
