<svg id="undraw_responsive_6c8s" xmlns="http://www.w3.org/2000/svg" xmlns:xlink="http://www.w3.org/1999/xlink" width="971.44" height="502" viewBox="0 0 971.44 502">
  <defs>
    <style>
      .fls-1 {
        opacity: 0.7;
      }

      .fls-2 {
        fill: url(#linear-gradient);
      }

      .fls-3 {
        fill: #bdbdbd;
      }

      .fls-16, .fls-4 {
        opacity: 0.1;
      }

      .fls-5 {
        fill: #535461;
      }

      .fls-6 {
        opacity: 0.5;
      }

      .fls-7 {
        fill: #fff;
      }

      .fls-8 {
        fill: #6c63ff;
      }

      .fls-9 {
        fill: #e0e0e0;
      }

      .fls-10 {
        stroke: #6c63ff;
        stroke-width: 2px;
      }

      .fls-10, .fls-11, .fls-13, .fls-15 {
        stroke-miterlimit: 10;
      }

      .fls-11, .fls-13, .fls-15 {
        fill: none;
      }

      .fls-11 {
        stroke: #fff;
      }

      .fls-12 {
        fill: url(#linear-gradient-3);
      }

      .fls-13, .fls-15 {
        stroke: #535461;
      }

      .fls-13 {
        stroke-width: 3px;
        opacity: 0.6;
      }

      .fls-14 {
        fill: #4db6ac;
      }

      .fls-15 {
        opacity: 0.3;
      }

      .fls-17 {
        fill: url(#linear-gradient-4);
      }

      .fls-18 {
        fill: #3ad29f;
      }

      .fls-19 {
        fill: #4d8af0;
      }

      .fls-20 {
        fill: #f55f44;
      }
    </style>
    <linearGradient id="linear-gradient" x1="0.5" y1="1" x2="0.5" gradientUnits="objectBoundingBox">
      <stop offset="0" stop-color="gray" stop-opacity="0.251"/>
      <stop offset="0.54" stop-color="gray" stop-opacity="0.122"/>
      <stop offset="1" stop-color="gray" stop-opacity="0.102"/>
    </linearGradient>
    <linearGradient id="linear-gradient-3" x1="0" y1="0.5" x2="1" y2="0.5" xlink:href="#linear-gradient"/>
    <linearGradient id="linear-gradient-4" x1="0" y1="0.5" x2="1" y2="0.5" xlink:href="#linear-gradient"/>
  </defs>
  <g id="Group_23" data-name="Group 23" class="fls-1">
    <path id="Path_450" data-name="Path 450" class="fls-2" d="M852.69,199H346.31A16.37,16.37,0,0,0,330,215.42V563.94a16.37,16.37,0,0,0,16.31,16.42H520.47v60.16h-7.94a8.3,8.3,0,0,0-8.27,8.33v12.07h16.21v7.14H678.53v-7.14h16.21V648.85a8.3,8.3,0,0,0-8.27-8.33H679V640h-.51V580.36h174.2A16.37,16.37,0,0,0,869,563.94V215.42A16.37,16.37,0,0,0,852.69,199Z" transform="translate(-114.28 -199)"/>
  </g>
  <rect id="Rectangle_71" data-name="Rectangle 71" class="fls-3" width="156" height="92" transform="translate(407.72 371)"/>
  <g id="Group_24" data-name="Group 24" class="fls-4">
    <path id="Path_451" data-name="Path 451" d="M525.07,579H675.24c1.81-7.87,3.26-13,3.26-13h-157S523.11,571.11,525.07,579Z" transform="translate(-114.28 -199)"/>
  </g>
  <path id="Path_452" data-name="Path 452" class="fls-5" d="M235.82,3h499.8a16.1,16.1,0,0,1,16.1,16.1V327h-532V19.1A16.1,16.1,0,0,1,235.82,3Z"/>
  <path id="Path_453" data-name="Path 453" class="fls-3" d="M849.9,576H350.1A16.1,16.1,0,0,1,334,559.9V526H866v33.9A16.1,16.1,0,0,1,849.9,576Z" transform="translate(-114.28 -199)"/>
  <circle id="Ellipse_138" data-name="Ellipse 138" class="fls-5" cx="9" cy="9" r="9" transform="translate(476.72 343)"/>
  <path id="Path_454" data-name="Path 454" class="fls-3" d="M399.89,436H571.55a8.17,8.17,0,0,1,8.17,8.17V456h-188V444.17A8.17,8.17,0,0,1,399.89,436Z"/>
  <g id="Group_25" data-name="Group 25" class="fls-6">
    <rect id="Rectangle_72" data-name="Rectangle 72" class="fls-2" width="330" height="187.76" rx="4.5" transform="translate(320.72 71.12)"/>
  </g>
  <rect id="Rectangle_73" data-name="Rectangle 73" class="fls-7" width="321.54" height="183.96" rx="4.5" transform="translate(324.95 72.5)"/>
  <g id="Group_26" data-name="Group 26" class="fls-6">
    <rect id="Rectangle_74" data-name="Rectangle 74" class="fls-8" width="35.44" height="31.9" rx="4.5" transform="translate(414.52 98.91)"/>
  </g>
  <rect id="Rectangle_75" data-name="Rectangle 75" class="fls-9" width="95.69" height="3.54" rx="1.77" transform="translate(460.59 98.91)"/>
  <rect id="Rectangle_76" data-name="Rectangle 76" class="fls-9" width="79.54" height="3.54" rx="1.77" transform="translate(460.59 109.55)"/>
  <g id="Group_27" data-name="Group 27" class="fls-6">
    <rect id="Rectangle_77" data-name="Rectangle 77" class="fls-8" width="35.44" height="31.9" rx="4.5" transform="translate(414.52 148.53)"/>
  </g>
  <rect id="Rectangle_78" data-name="Rectangle 78" class="fls-9" width="95.69" height="3.54" rx="1.77" transform="translate(460.59 148.53)"/>
  <rect id="Rectangle_79" data-name="Rectangle 79" class="fls-9" width="95.69" height="3.54" rx="1.77" transform="translate(460.59 159.16)"/>
  <g id="Group_28" data-name="Group 28" class="fls-6">
    <rect id="Rectangle_80" data-name="Rectangle 80" class="fls-8" width="35.44" height="31.9" rx="4.5" transform="translate(414.52 198.15)"/>
  </g>
  <rect id="Rectangle_81" data-name="Rectangle 81" class="fls-9" width="95.69" height="3.54" rx="1.77" transform="translate(460.59 198.15)"/>
  <rect id="Rectangle_82" data-name="Rectangle 82" class="fls-9" width="96.33" height="3.54" rx="1.59" transform="translate(460.59 208.78)"/>
  <line id="Line_4" data-name="Line 4" class="fls-10" y1="22" transform="translate(485.72 20)"/>
  <line id="Line_5" data-name="Line 5" class="fls-10" y1="28.87" transform="translate(485.72 50.13)"/>
  <circle id="Ellipse_139" data-name="Ellipse 139" class="fls-8" cx="4" cy="4" r="4" transform="translate(481.72 75)"/>
  <circle id="Ellipse_140" data-name="Ellipse 140" class="fls-11" cx="4" cy="4" r="4" transform="translate(481.72 42)"/>
  <line id="Line_6" data-name="Line 6" class="fls-10" y1="22" transform="translate(485.72 20)"/>
  <line id="Line_7" data-name="Line 7" class="fls-10" y1="28.87" transform="translate(485.72 50.13)"/>
  <circle id="Ellipse_141" data-name="Ellipse 141" class="fls-8" cx="4" cy="4" r="4" transform="translate(481.72 75)"/>
  <circle id="Ellipse_142" data-name="Ellipse 142" class="fls-11" cx="4" cy="4" r="4" transform="translate(481.72 42)"/>
  <line id="Line_8" data-name="Line 8" class="fls-10" y2="31" transform="translate(485.72 279)"/>
  <line id="Line_9" data-name="Line 9" class="fls-10" y2="28.87" transform="translate(485.72 251)"/>
  <circle id="Ellipse_143" data-name="Ellipse 143" class="fls-8" cx="4" cy="4" r="4" transform="translate(481.72 247)"/>
  <line id="Line_10" data-name="Line 10" class="fls-10" x1="31.5" transform="translate(274.22 168.5)"/>
  <line id="Line_11" data-name="Line 11" class="fls-10" x1="28.87" transform="translate(304.35 168.5)"/>
  <circle id="Ellipse_144" data-name="Ellipse 144" class="fls-8" cx="4" cy="4" r="4" transform="translate(329.22 164.5)"/>
  <g id="Group_29" data-name="Group 29" class="fls-4">
    <rect id="Rectangle_83" data-name="Rectangle 83" width="156" height="3" transform="translate(408.22 435.5)"/>
  </g>
  <g id="Group_30" data-name="Group 30" class="fls-1">
    <path id="Path_455" data-name="Path 455" class="fls-12" d="M293.48,566.06h-72.4l1-8.14c20.46-18.37,33.69-67.31,33.69-67.31a6.771,6.771,0,0,0-.87.18c-12,2.42-20.54,7.35-26.51,13.28l2.54-21.66c37.8-8.14,52.79-58.14,52.79-58.14-24.12,5.35-39.16,13.63-48.5,21.49l3.72-31.82c25.56,8.77,52-37.82,52-37.82l-1-.21.5-.32-.76.27c-28.25-6.09-43.35,10.06-48.25,16.77l.37-3.12q-1.12,3-2.18,5.88h0v.08q-3,8.13-5.49,16.06h0q-2.17,6.77-4.06,13.4v-.06s-1.17-28.46-31.18-35.95c0,0,3.15,62.07,26.93,51.91h0c-2.2,9-4,17.66-5.56,26.07h0q-1.49,8.21-2.6,16l-.14.16.14-.12-.06.41h0q-1,7.07-1.7,13.78c.46-8.62-1.11-33.52-30.45-56.92,0,0-39,68.54,27.5,82l.44.38-.1-.31.6.13.27-3.52a369.4,369.4,0,0,0,.23,44.1h0c.07,1,.14,2,.21,2.95H141.37c-27.94,57.79,15.52,89.46,15.52,89.46h120C323.49,596.66,293.48,566.06,293.48,566.06Zm-78-65.68Z" transform="translate(-114.28 -199)"/>
  </g>
  <path id="Path_456" data-name="Path 456" class="fls-13" d="M217,588s-19-83,23-190" transform="translate(-114.28 -199)"/>
  <path id="Path_457" data-name="Path 457" class="fls-8" d="M143,563H290s29,37-16,92H158S116,617,143,563Z" transform="translate(-114.28 -199)"/>
  <path id="Path_458" data-name="Path 458" class="fls-14" d="M237.89,403.5s14.61-26,49.61-18c0,0-28.93,49.26-55,33.13Z" transform="translate(-114.28 -199)"/>
  <path id="Path_459" data-name="Path 459" class="fls-14" d="M228.63,431.09S227.5,404.5,198.5,397.5c0,0,3,58,26,48.5Z" transform="translate(-114.28 -199)"/>
  <path id="Path_460" data-name="Path 460" class="fls-14" d="M219.15,470.36s5.35-27.86,61.35-39.86c0,0-17.86,57.62-63.93,55.31Z" transform="translate(-114.28 -199)"/>
  <path id="Path_461" data-name="Path 461" class="fls-14" d="M214.61,501.63s5.89-29.13-29.11-56.13c0,0-38,64.67,27.48,76.83Z" transform="translate(-114.28 -199)"/>
  <path id="Path_462" data-name="Path 462" class="fls-14" d="M213.56,541.67S209.5,500.5,253.5,492.5c0,0-16.07,57.49-40,67.74Z" transform="translate(-114.28 -199)"/>
  <path id="Path_463" data-name="Path 463" class="fls-15" d="M233,419s38-29,54-34" transform="translate(-114.28 -199)"/>
  <path id="Path_464" data-name="Path 464" class="fls-15" d="M216.5,485.5s46-49,64-55" transform="translate(-114.28 -199)"/>
  <path id="Path_465" data-name="Path 465" class="fls-15" d="M198.5,397.5s28,38,26,48" transform="translate(-114.28 -199)"/>
  <path id="Path_466" data-name="Path 466" class="fls-15" d="M185.5,445.5s15,68,27,77" transform="translate(-114.28 -199)"/>
  <path id="Path_467" data-name="Path 467" class="fls-15" d="M213.5,560.5s24-66,40-68" transform="translate(-114.28 -199)"/>
  <g id="Group_31" data-name="Group 31" class="fls-4">
    <path id="Path_468" data-name="Path 468" d="M290,563H143c-.33.67-.65,1.34-1,2H285s28.29,36.11-14.4,90H274C319,600,290,563,290,563Z" transform="translate(-114.28 -199)"/>
  </g>
  <rect id="Rectangle_84" data-name="Rectangle 84" class="fls-9" width="971.44" height="32.93" transform="translate(0 455.6)"/>
  <rect id="Rectangle_85" data-name="Rectangle 85" class="fls-9" width="889.11" height="13.47" transform="translate(41.16 488.53)"/>
  <rect id="Rectangle_86" data-name="Rectangle 86" class="fls-16" width="889.11" height="4.49" transform="translate(41.16 488.53)"/>
  <line id="Line_12" data-name="Line 12" class="fls-10" x2="6" transform="translate(690.22 168.5)"/>
  <line id="Line_13" data-name="Line 13" class="fls-10" x2="44.88" transform="translate(637.22 168.5)"/>
  <circle id="Ellipse_145" data-name="Ellipse 145" class="fls-8" cx="4" cy="4" r="4" transform="translate(633.22 164.5)"/>
  <circle id="Ellipse_146" data-name="Ellipse 146" class="fls-11" cx="4" cy="4" r="4" transform="translate(682.22 164.5)"/>
  <g id="Group_32" data-name="Group 32" class="fls-1">
    <path id="Path_469" data-name="Path 469" class="fls-17" d="M1027,643.88l.1-.15q.31-.48.61-1l.11-.19q.29-.49.55-1l.09-.17c.2-.39.39-.78.56-1.19h0a23.789,23.789,0,0,0,.94-2.51l.1-.33c.09-.31.18-.62.26-.93l.1-.44q.1-.42.18-.85a2.71,2.71,0,0,1,.09-.48c.03-.16.09-.56.13-.85a2.2,2.2,0,0,1,.06-.49,5.3,5.3,0,0,0,.08-.92V548h-13.85V507.52h-17V548H988.39V489.86h-17V548H965V481.55H948V548H933v82.6c0,13.48,11.21,24.4,25,24.4h48a25.19,25.19,0,0,0,20.24-10.06h0Q1026.61,644.41,1027,643.88Z" transform="translate(-114.28 -199)"/>
  </g>
  <rect id="Rectangle_87" data-name="Rectangle 87" class="fls-5" width="16" height="100" transform="translate(835.72 321)"/>
  <rect id="Rectangle_88" data-name="Rectangle 88" class="fls-18" width="16" height="33" transform="translate(835.72 288)"/>
  <rect id="Rectangle_89" data-name="Rectangle 89" class="fls-5" width="16" height="100" transform="translate(857.72 329)"/>
  <rect id="Rectangle_90" data-name="Rectangle 90" class="fls-19" width="16" height="33" transform="translate(857.72 296)"/>
  <rect id="Rectangle_91" data-name="Rectangle 91" class="fls-5" width="16" height="100" transform="translate(884.72 346)"/>
  <rect id="Rectangle_92" data-name="Rectangle 92" class="fls-20" width="16" height="33" transform="translate(884.72 313)"/>
  <path id="Path_470" data-name="Path 470" class="fls-8" d="M821.72,352h92v79.5a23.5,23.5,0,0,1-23.5,23.5h-45a23.5,23.5,0,0,1-23.5-23.5Z"/>
  <g id="Group_33" data-name="Group 33" class="fls-4">
    <path id="Path_471" data-name="Path 471" d="M936,551v4h88v79.5a23.39,23.39,0,0,1-5,14.49,23.45,23.45,0,0,0,9-18.49V551Z" transform="translate(-114.28 -199)"/>
  </g>
</svg>
