<svg xmlns="http://www.w3.org/2000/svg" width="965.353" height="690.003" viewBox="0 0 965.353 690.003">
  <defs>
    <style>
      .sls-1 {
        fill: #f2f2f2;
      }

      .sls-2 {
        fill: #3f3d56;
      }

      .sls-3, .sls-5 {
        fill: #6c63ff;
      }

      .sls-4 {
        opacity: 0.1;
      }

      .sls-5 {
        opacity: 0.3;
      }

      .sls-6 {
        fill: #e6a2ab;
      }

      .sls-7 {
        fill: #2f2e41;
      }

      .sls-8 {
        fill: #575a89;
      }

      .sls-9 {
        fill: #a8a8a8;
      }

      .sls-10 {
        opacity: 0.2;
      }
    </style>
  </defs>
  <g id="undraw_online_page_cq94" transform="translate(0 0)">
    <path id="Path_450" data-name="Path 450" class="sls-1" d="M220.676,681.319c0,38.918-23.136,52.507-51.676,52.507s-51.676-13.589-51.676-52.507S169,592.89,169,592.89,220.676,642.4,220.676,681.319Z" transform="translate(-117.324 -104.999)"/>
    <path id="Path_451" data-name="Path 451" class="sls-2" d="M49.794,622.874l.529-32.571,22.026-40.295L50.406,585.193l.238-14.645L65.824,541.4,50.707,566.672h0l.428-26.341L67.39,517.123,51.2,536.19l.267-48.3-1.68,63.938.138-2.637L33.4,523.9l16.261,30.36-1.54,29.418-.045-.781L29.024,556.272l19,29.379-.193,3.679-.034.055.016.3L43.9,664.322h5.22l.626-38.55,18.948-29.308Z"/>
    <path id="Path_452" data-name="Path 452" class="sls-1" d="M628.119,181.264C763.793,289.373,786.139,487,678.031,622.672S240.663,846.016,236.623,672.584c-4.066-174.543-93.881-338.111-49.912-441.408C254.654,71.555,492.445,73.155,628.119,181.264Z" transform="translate(-117.324 -104.999)"/>
    <ellipse id="Ellipse_138" data-name="Ellipse 138" class="sls-2" cx="144" cy="24" rx="144" ry="24" transform="translate(6.353 642.003)"/>
    <ellipse id="Ellipse_139" data-name="Ellipse 139" class="sls-2" cx="70.914" cy="11.819" rx="70.914" ry="11.819" transform="translate(815.848 646.137)"/>
    <rect id="Rectangle_71" data-name="Rectangle 71" class="sls-2" width="822" height="444" transform="translate(143.353 160.003)"/>
    <rect id="Rectangle_72" data-name="Rectangle 72" class="sls-2" width="822" height="41" transform="translate(143.353 124.003)"/>
    <circle id="Ellipse_140" data-name="Ellipse 140" class="sls-3" cx="7" cy="7" r="7" transform="translate(156.353 135.003)"/>
    <circle id="Ellipse_141" data-name="Ellipse 141" class="sls-3" cx="7" cy="7" r="7" transform="translate(176.353 135.003)"/>
    <circle id="Ellipse_142" data-name="Ellipse 142" class="sls-3" cx="7" cy="7" r="7" transform="translate(196.353 135.003)"/>
    <rect id="Rectangle_73" data-name="Rectangle 73" class="sls-4" width="822" height="5" transform="translate(143.353 160.003)"/>
    <rect id="Rectangle_74" data-name="Rectangle 74" class="sls-5" width="162" height="173" transform="translate(190.853 230.503)"/>
    <rect id="Rectangle_75" data-name="Rectangle 75" class="sls-3" width="162" height="173" transform="translate(201.853 218.503)"/>
    <rect id="Rectangle_76" data-name="Rectangle 76" class="sls-5" width="124.543" height="133" transform="translate(784.853 227.728)"/>
    <rect id="Rectangle_77" data-name="Rectangle 77" class="sls-3" width="124.543" height="133" transform="translate(793.309 218.503)"/>
    <rect id="Rectangle_78" data-name="Rectangle 78" class="sls-5" width="124.543" height="133" transform="translate(784.853 412.503)"/>
    <rect id="Rectangle_79" data-name="Rectangle 79" class="sls-3" width="124.543" height="133" transform="translate(793.309 403.277)"/>
    <rect id="Rectangle_80" data-name="Rectangle 80" class="sls-3" width="309" height="12" transform="translate(420.853 218.503)"/>
    <rect id="Rectangle_81" data-name="Rectangle 81" class="sls-3" width="309" height="12" transform="translate(420.853 253.503)"/>
    <rect id="Rectangle_82" data-name="Rectangle 82" class="sls-3" width="309" height="12" transform="translate(420.853 288.503)"/>
    <rect id="Rectangle_83" data-name="Rectangle 83" class="sls-3" width="309" height="12" transform="translate(420.853 323.503)"/>
    <rect id="Rectangle_84" data-name="Rectangle 84" class="sls-3" width="309" height="12" transform="translate(420.853 358.503)"/>
    <rect id="Rectangle_85" data-name="Rectangle 85" class="sls-3" width="309" height="12" transform="translate(420.853 393.503)"/>
    <rect id="Rectangle_86" data-name="Rectangle 86" class="sls-3" width="309" height="12" transform="translate(420.853 428.503)"/>
    <rect id="Rectangle_87" data-name="Rectangle 87" class="sls-3" width="309" height="12" transform="translate(420.853 463.503)"/>
    <rect id="Rectangle_88" data-name="Rectangle 88" class="sls-3" width="309" height="12" transform="translate(420.853 498.503)"/>
    <rect id="Rectangle_89" data-name="Rectangle 89" class="sls-3" width="309" height="12" transform="translate(420.853 533.503)"/>
    <circle id="Ellipse_143" data-name="Ellipse 143" class="sls-6" cx="21.5" cy="21.5" r="21.5" transform="translate(104.839 269.882)"/>
    <path id="Path_453" data-name="Path 453" class="sls-6" d="M229.751,406.5s0,22.765-3.794,25.294,30.353,5.059,30.353,5.059V407.763Z" transform="translate(-117.324 -104.999)"/>
    <path id="Path_454" data-name="Path 454" class="sls-6" d="M188.015,532.969s24.03,27.824,29.089,27.824,10.118-18.971,10.118-18.971l-24.029-17.706Z" transform="translate(-117.324 -104.999)"/>
    <path id="Path_455" data-name="Path 455" class="sls-6" d="M308.163,407.763l3.794-26.559s2.529-36.677,10.118-27.824,2.529,29.088,2.529,29.088,3.794,29.088,0,32.883S308.163,407.763,308.163,407.763Z" transform="translate(-117.324 -104.999)"/>
    <path id="Path_456" data-name="Path 456" class="sls-7" d="M286.663,550.675l-68.294-6.324s-8.853,41.735-6.324,58.177,3.794,63.235,3.794,63.235,2.529,84.736,6.324,89.794,16.441,3.794,20.235,6.324,10.118-5.059,10.118-6.324-7.588-1.265-3.794-8.853S238.6,717.617,242.4,707.5s10.118-24.029,6.324-29.088,2.529-69.559,2.529-69.559,31.618,45.53,31.618,65.765-2.529,67.03-3.794,72.089-2.529,6.324,0,10.118,5.059,7.588,3.794,8.853,22.765,0,22.765-7.588-1.265-7.588,1.265-13.912,3.794-82.206,3.794-82.206Z" transform="translate(-117.324 -104.999)"/>
    <path id="Path_457" data-name="Path 457" class="sls-8" d="M225.957,422.939l-3.794,7.588s-40.471,12.647-41.736,39.206l34.147,56.912s2.529,3.794,1.265,6.324-2.529,1.265-1.265,5.059,1.265,2.529,1.265,5.059-3.794,1.265,0,2.529-1.265,0,12.647,3.794,55.647,2.529,55.647,2.529l-7.588-73.353,7.589-15.176-10.118-30.353s-6.324-1.265-10.118,1.265-8.853-2.529-8.853-2.529S248.722,422.939,225.957,422.939Z" transform="translate(-117.324 -104.999)"/>
    <path id="Path_458" data-name="Path 458" class="sls-8" d="M267.692,434.322l6.324-1.265s25.294-7.588,26.559-13.912,7.588-13.912,7.588-13.912,20.235-5.059,18.971,11.382-6.324,21.5-8.853,24.03-30.352,22.764-35.411,22.764S267.692,434.322,267.692,434.322Z" transform="translate(-117.324 -104.999)"/>
    <path id="Path_459" data-name="Path 459" class="sls-8" d="M182.957,464.675l-2.529,5.059-1.265,45.53s-7.588,5.059-3.794,7.588,12.647,13.912,15.176,13.912,16.441-6.324,16.441-8.853-2.529-25.294-2.529-25.294Z" transform="translate(-117.324 -104.999)"/>
    <path id="Path_460" data-name="Path 460" class="sls-7" d="M229.751,755.558s0,12.647-1.265,15.177-3.794,15.177,3.794,15.177a30.689,30.689,0,0,0,12.647-2.529s0-7.588,3.794-8.853,12.647-11.382,8.853-13.912-11.382-5.059-11.382-5.059Z" transform="translate(-117.324 -104.999)"/>
    <path id="Path_461" data-name="Path 461" class="sls-7" d="M284.134,761.882s-7.588,17.706,0,18.971,17.706,0,18.971-2.529,3.794-5.059,6.324-3.794,24.029-13.912,16.441-16.441a21.9,21.9,0,0,0-13.912,0l-7.588-3.794Z" transform="translate(-117.324 -104.999)"/>
    <path id="Path_462" data-name="Path 462" class="sls-7" d="M246.381,420.078a2.6,2.6,0,0,0,1.029-.284,2.659,2.659,0,0,0,.959-1.66l2.583-9.151c.98-3.472,2.554-7.528,6.087-8.262a5.741,5.741,0,0,0,2.132-.567,3.69,3.69,0,0,0,1.158-2.854l1.107-11.828c.3-3.2.583-6.523-.532-9.535-1.645-4.443-6.157-7.368-10.819-8.209s-9.465.1-14,1.459c-6.884,2.062-14.013,5.613-17,12.147-1.732,3.783-1.838,8.1-1.607,12.251.238,4.277.833,8.638,2.8,12.444a37.3,37.3,0,0,0,3.791,5.572c2.135,2.763,4.753,8.166,8.287,9.2C236.329,421.961,242.344,420.6,246.381,420.078Z" transform="translate(-117.324 -104.999)"/>
    <path id="Path_463" data-name="Path 463" class="sls-7" d="M947.429,688.571c0,38.029,23.857,68.8,53.341,68.8" transform="translate(-117.324 -104.999)"/>
    <path id="Path_464" data-name="Path 464" class="sls-3" d="M1000.77,757.373c0-38.456,26.624-69.575,59.525-69.575" transform="translate(-117.324 -104.999)"/>
    <path id="Path_465" data-name="Path 465" class="sls-3" d="M966.755,692.018c0,36.124,15.213,65.354,34.014,65.354" transform="translate(-117.324 -104.999)"/>
    <path id="Path_466" data-name="Path 466" class="sls-7" d="M1000.77,757.373c0-49.139,30.773-88.9,68.8-88.9" transform="translate(-117.324 -104.999)"/>
    <path id="Path_467" data-name="Path 467" class="sls-9" d="M989.548,757.858s7.565-.233,9.844-1.856,11.636-3.562,12.2-.958,11.368,12.949,2.828,13.018-19.844-1.33-22.119-2.716S989.548,757.858,989.548,757.858Z" transform="translate(-117.324 -104.999)"/>
    <path id="Path_468" data-name="Path 468" class="sls-10" d="M1014.57,767.155c-8.54.069-19.844-1.33-22.119-2.716-1.733-1.056-2.423-4.843-2.654-6.59l-.253.01s.479,6.1,2.755,7.487,13.579,2.785,22.119,2.716c2.465-.02,3.317-.9,3.27-2.2C1017.35,766.65,1016.41,767.14,1014.57,767.155Z" transform="translate(-117.324 -104.999)"/>
  </g>
</svg>
