<svg id="undraw_server_cluster_jwwq" xmlns="http://www.w3.org/2000/svg" width="888" height="710.807" viewBox="0 0 888 710.807">
  <defs>
    <style>
      .dlf-1 {
        fill: #ccc;
      }

      .dlf-2 {
        fill: #2f2e41;
      }

      .dlf-3 {
        fill: #3f3d56;
      }

      .dlf-4 {
        fill: #6c63ff;
      }

      .dlf-5 {
        fill: #e6e6e6;
      }

      .dlf-6 {
        fill: #fff;
      }

      .dlf-7 {
        fill: #e2e2e2;
      }
    </style>
  </defs>
  <path id="Path_450" data-name="Path 450" class="dlf-1" d="M600.936,699.4A260.064,260.064,0,1,1,784.83,623.233,260.064,260.064,0,0,1,600.936,699.4Zm0-518.129c-142.3,0-258.064,115.768-258.064,258.065S458.64,697.4,600.936,697.4,859,581.637,859,439.34,743.232,181.275,600.936,181.275Z" transform="translate(-156 -94.596)"/>
  <rect id="Rectangle_71" data-name="Rectangle 71" class="dlf-2" width="262" height="195" transform="translate(541.5 381.807) rotate(90)"/>
  <rect id="Rectangle_72" data-name="Rectangle 72" class="dlf-3" width="262" height="104" transform="translate(313 373.807)"/>
  <rect id="Rectangle_73" data-name="Rectangle 73" class="dlf-3" width="262" height="104" transform="translate(313 489.807)"/>
  <rect id="Rectangle_74" data-name="Rectangle 74" class="dlf-3" width="262" height="104" transform="translate(313 605.807)"/>
  <rect id="Rectangle_75" data-name="Rectangle 75" class="dlf-4" width="262" height="16" transform="translate(313 417.904)"/>
  <rect id="Rectangle_76" data-name="Rectangle 76" class="dlf-4" width="262" height="16" transform="translate(313 533.904)"/>
  <rect id="Rectangle_77" data-name="Rectangle 77" class="dlf-4" width="262" height="16" transform="translate(313 649.904)"/>
  <circle id="Ellipse_138" data-name="Ellipse 138" class="dlf-4" cx="6" cy="6" r="6" transform="translate(518 382.807)"/>
  <circle id="Ellipse_139" data-name="Ellipse 139" class="dlf-4" cx="6" cy="6" r="6" transform="translate(539 382.807)"/>
  <circle id="Ellipse_140" data-name="Ellipse 140" class="dlf-4" cx="6" cy="6" r="6" transform="translate(560 382.807)"/>
  <circle id="Ellipse_141" data-name="Ellipse 141" class="dlf-4" cx="6" cy="6" r="6" transform="translate(518 496.807)"/>
  <circle id="Ellipse_142" data-name="Ellipse 142" class="dlf-4" cx="6" cy="6" r="6" transform="translate(539 496.807)"/>
  <circle id="Ellipse_143" data-name="Ellipse 143" class="dlf-4" cx="6" cy="6" r="6" transform="translate(560 496.807)"/>
  <circle id="Ellipse_144" data-name="Ellipse 144" class="dlf-4" cx="6" cy="6" r="6" transform="translate(518 610.807)"/>
  <circle id="Ellipse_145" data-name="Ellipse 145" class="dlf-4" cx="6" cy="6" r="6" transform="translate(539 610.807)"/>
  <circle id="Ellipse_146" data-name="Ellipse 146" class="dlf-4" cx="6" cy="6" r="6" transform="translate(560 610.807)"/>
  <rect id="Rectangle_78" data-name="Rectangle 78" class="dlf-3" width="888" height="2" transform="translate(0 708.807)"/>
  <path id="Path_451" data-name="Path 451" class="dlf-5" d="M397.879,365.661V551.653a14.675,14.675,0,0,1-14.669,14.672H310.928a14.677,14.677,0,0,1-14.678-14.674V365.661a14.677,14.677,0,0,1,14.678-14.672H319.7a6.978,6.978,0,0,0,6.455,9.606h41.208a6.978,6.978,0,0,0,6.455-9.606h9.392a14.675,14.675,0,0,1,14.673,14.67Z" transform="translate(-156 -94.596)"/>
  <rect id="Rectangle_79" data-name="Rectangle 79" class="dlf-6" width="92" height="128" transform="translate(145.064 291.91)"/>
  <rect id="Rectangle_80" data-name="Rectangle 80" class="dlf-5" width="36.72" height="2.098" transform="translate(171.186 379.927)"/>
  <rect id="Rectangle_81" data-name="Rectangle 81" class="dlf-4" width="56.817" height="2.098" transform="translate(171.149 387.632)"/>
  <rect id="Rectangle_82" data-name="Rectangle 82" class="dlf-5" width="44.588" height="2.098" transform="translate(171.149 394.89)"/>
  <rect id="Rectangle_83" data-name="Rectangle 83" class="dlf-5" width="26.228" height="2.098" transform="translate(171.149 402.149)"/>
  <rect id="Rectangle_84" data-name="Rectangle 84" class="dlf-5" width="39.343" height="2.098" transform="translate(171.149 409.407)"/>
  <rect id="Rectangle_85" data-name="Rectangle 85" class="dlf-5" width="4.197" height="4.197" transform="translate(154.533 379.324)"/>
  <rect id="Rectangle_86" data-name="Rectangle 86" class="dlf-4" width="4.197" height="4.197" transform="translate(154.533 386.582)"/>
  <rect id="Rectangle_87" data-name="Rectangle 87" class="dlf-5" width="4.197" height="4.197" transform="translate(154.533 393.841)"/>
  <rect id="Rectangle_88" data-name="Rectangle 88" class="dlf-5" width="4.197" height="4.197" transform="translate(154.533 401.1)"/>
  <rect id="Rectangle_89" data-name="Rectangle 89" class="dlf-5" width="4.197" height="4.197" transform="translate(154.533 408.358)"/>
  <rect id="Rectangle_90" data-name="Rectangle 90" class="dlf-5" width="36.998" height="36.998" transform="translate(172.751 307.91)"/>
  <rect id="Rectangle_91" data-name="Rectangle 91" class="dlf-5" width="245.884" height="157.475" transform="translate(321.111 0.139)"/>
  <rect id="Rectangle_92" data-name="Rectangle 92" class="dlf-6" width="203.861" height="77.035" transform="translate(339.647 44.195)"/>
  <rect id="Rectangle_93" data-name="Rectangle 93" class="dlf-5" width="48.927" height="2.796" transform="translate(376.789 57.542)"/>
  <rect id="Rectangle_94" data-name="Rectangle 94" class="dlf-4" width="75.705" height="2.796" transform="translate(376.74 67.807)"/>
  <rect id="Rectangle_95" data-name="Rectangle 95" class="dlf-5" width="59.411" height="2.796" transform="translate(376.74 77.479)"/>
  <rect id="Rectangle_96" data-name="Rectangle 96" class="dlf-5" width="34.948" height="2.796" transform="translate(376.74 87.151)"/>
  <rect id="Rectangle_97" data-name="Rectangle 97" class="dlf-5" width="52.422" height="2.796" transform="translate(376.74 96.822)"/>
  <rect id="Rectangle_98" data-name="Rectangle 98" class="dlf-5" width="5.592" height="5.592" transform="translate(354.601 56.738)"/>
  <rect id="Rectangle_99" data-name="Rectangle 99" class="dlf-4" width="5.592" height="5.592" transform="translate(354.601 66.409)"/>
  <rect id="Rectangle_100" data-name="Rectangle 100" class="dlf-5" width="5.592" height="5.592" transform="translate(354.601 76.081)"/>
  <rect id="Rectangle_101" data-name="Rectangle 101" class="dlf-5" width="5.592" height="5.592" transform="translate(354.601 85.753)"/>
  <rect id="Rectangle_102" data-name="Rectangle 102" class="dlf-5" width="5.592" height="5.592" transform="translate(354.601 95.424)"/>
  <rect id="Rectangle_103" data-name="Rectangle 103" class="dlf-5" width="50.059" height="50.059" transform="translate(483.445 53.847)"/>
  <rect id="Rectangle_104" data-name="Rectangle 104" class="dlf-4" width="245.884" height="10.446" transform="translate(321.006)"/>
  <circle id="Ellipse_147" data-name="Ellipse 147" class="dlf-6" cx="2.097" cy="2.097" r="2.097" transform="translate(326.671 3.244)"/>
  <circle id="Ellipse_148" data-name="Ellipse 148" class="dlf-6" cx="2.097" cy="2.097" r="2.097" transform="translate(334.02 3.244)"/>
  <circle id="Ellipse_149" data-name="Ellipse 149" class="dlf-6" cx="2.097" cy="2.097" r="2.097" transform="translate(341.369 3.244)"/>
  <rect id="Rectangle_105" data-name="Rectangle 105" class="dlf-5" width="60" height="31" transform="translate(671.648 294.807)"/>
  <rect id="Rectangle_106" data-name="Rectangle 106" class="dlf-5" width="60" height="31" transform="translate(671.648 405.807)"/>
  <circle id="Ellipse_150" data-name="Ellipse 150" class="dlf-5" cx="50" cy="50" r="50" transform="translate(651.648 315.807)"/>
  <circle id="Ellipse_151" data-name="Ellipse 151" class="dlf-6" cx="39" cy="39" r="39" transform="translate(662.648 326.807)"/>
  <rect id="Rectangle_107" data-name="Rectangle 107" class="dlf-7" width="30.247" height="1.728" transform="translate(688.877 355.122)"/>
  <rect id="Rectangle_108" data-name="Rectangle 108" class="dlf-4" width="46.801" height="1.728" transform="translate(688.846 361.468)"/>
  <rect id="Rectangle_109" data-name="Rectangle 109" class="dlf-7" width="36.728" height="1.728" transform="translate(688.846 367.447)"/>
  <rect id="Rectangle_110" data-name="Rectangle 110" class="dlf-7" width="21.605" height="1.728" transform="translate(688.846 373.426)"/>
  <rect id="Rectangle_111" data-name="Rectangle 111" class="dlf-7" width="32.407" height="1.728" transform="translate(688.846 379.405)"/>
  <rect id="Rectangle_112" data-name="Rectangle 112" class="dlf-7" width="3.457" height="3.457" transform="translate(675.16 354.625)"/>
  <rect id="Rectangle_113" data-name="Rectangle 113" class="dlf-4" width="3.457" height="3.457" transform="translate(675.16 360.604)"/>
  <rect id="Rectangle_114" data-name="Rectangle 114" class="dlf-7" width="3.457" height="3.457" transform="translate(675.16 366.583)"/>
  <rect id="Rectangle_115" data-name="Rectangle 115" class="dlf-7" width="3.457" height="3.457" transform="translate(675.16 372.562)"/>
  <rect id="Rectangle_116" data-name="Rectangle 116" class="dlf-7" width="3.457" height="3.457" transform="translate(675.16 378.541)"/>
</svg>
